<?xml version="1.0" standalone="no"?>
<!DOCTYPE svg PUBLIC "-//W3C//DTD SVG 20010904//EN"
 "http://www.w3.org/TR/2001/REC-SVG-20010904/DTD/svg10.dtd">
<svg version="1.0" xmlns="http://www.w3.org/2000/svg"
 width="1230.000000pt" height="1230.000000pt" viewBox="0 0 1230.000000 1230.000000"
 preserveAspectRatio="xMidYMid meet">
<metadata>
Created by potrace 1.11, written by Peter Selinger 2001-2013
</metadata>
<g transform="translate(0.000000,1230.000000) scale(0.100000,-0.100000)"
fill="#000000" stroke="none">
<path d="M550 8517 l0 -3232 340 0 340 0 0 1512 0 1513 2893 0 2892 0 0 343 0
342 -2893 3 -2892 2 0 1035 0 1035 1380 0 1380 0 0 340 0 340 -1720 0 -1720 0
0 -3233z"/>
<path d="M5274 11410 l0 -340 1513 0 1513 0 2 -2892 3 -2893 343 0 342 0 0
2892 0 2893 1035 0 1035 0 0 -1380 0 -1380 350 0 350 1 0 1719 0 1720 -3243 0
-3243 0 0 -340z"/>
<path d="M3304 7021 c-2 -2 -4 -1304 -4 -2893 l0 -2888 -1035 0 -1035 0 0
1380 0 1380 -340 0 -340 0 0 -1730 0 -1730 3233 0 3232 0 0 350 0 350 -1512 0
-1513 0 0 2893 0 2893 -341 0 c-187 0 -342 -2 -345 -5z"/>
<path d="M11065 7021 c-3 -2 -5 -683 -5 -1513 l0 -1508 -2892 -2 -2893 -3 0
-342 -1 -343 2893 0 2893 0 0 -1035 0 -1035 -1380 0 -1380 0 0 -350 0 -350
1730 0 1730 0 0 3243 0 3243 -345 0 c-190 0 -348 -2 -350 -5z"/>
</g>
</svg>
